<svg width="16" height="16" viewBox="0 0 16 16" fill="none" xmlns="http://www.w3.org/2000/svg">
<g clip-path="url(#clip0_43_2)">
<path opacity="0.6" d="M8 1L8.99115 5.60715L12.9497 3.05025L10.3928 7.00885L15 8L10.3928 8.99115L12.9497 12.9497L8.99115 10.3928L8 15L7.00885 10.3928L3.05025 12.9497L5.60715 8.99115L1 8L5.60715 7.00885L3.05025 3.05025L7.00885 5.60715L8 1Z" fill="#FF4500"/>
<path d="M9.81177 1.23849L9.57673 5.94519L14.0622 4.49997L10.5679 7.66191L14.7615 9.81171L10.0548 9.57666L11.5 14.0621L8.3381 10.5678L6.18831 14.7615L6.42335 10.0548L1.93786 11.5L5.4322 8.33803L1.23856 6.18824L5.94526 6.42328L4.50004 1.93779L7.66198 5.43213L9.81177 1.23849Z" fill="#FF4500"/>
<path opacity="0.3" d="M11.5 1.93774L10.0548 6.42323L14.7615 6.18819L10.5679 8.33798L14.0622 11.4999L9.57674 10.0547L9.81178 14.7614L7.66198 10.5678L4.50004 14.0621L5.94526 9.57661L1.23856 9.81165L5.4322 7.66186L1.93787 4.49992L6.42335 5.94514L6.18831 1.23844L8.33811 5.43208L11.5 1.93774Z" fill="#FF4500"/>
</g>
<defs>
<clipPath id="clip0_43_2">
<rect width="16" height="16" fill="white"/>
</clipPath>
</defs>
</svg>
